<svg xmlns="http://www.w3.org/2000/svg" viewBox="0 0 335.26 108.12"><defs><style>.cls-1{fill:#fff;}</style></defs><g id="레이어_2" data-name="레이어 2"><g id="레이어_1-2" data-name="레이어 1"><path class="cls-1" d="M142.07,39.45V46H125.42a9.31,9.31,0,0,1-4.6-1.2,11,11,0,0,1-4.73-5.31A12.41,12.41,0,0,1,115,34.34V9.48h5.86V35a5,5,0,0,0,4,4.43Z"/><path class="cls-1" d="M173.64,27.67c0,10.06-7.36,18.24-16.41,18.24s-16.42-8.18-16.42-18.24,7.36-18.24,16.42-18.24S173.64,17.61,173.64,27.67Zm-5.86,0C167.78,21.21,163,16,157.23,16s-10.56,5.26-10.56,11.72,4.74,11.73,10.56,11.73S167.78,34.13,167.78,27.67Z"/><path class="cls-1" d="M192,39.3c-5.85,0-10.62-5.29-10.62-11.79s4.77-11.8,10.62-11.8h16.51V9.15H192c-9.11,0-16.51,8.24-16.51,18.36S182.9,45.86,192,45.86h16.51V25.72h-8.44l-5.55,6.56h8.1v7Z"/><path class="cls-1" d="M130.28,98.09c-9.33,0-16.28-7.91-16.28-18s6.81-18.06,16.51-18.06A16,16,0,0,1,143,67.5L139.42,72c-2.56-2.58-5.3-4.33-9-4.33-6.13,0-10.56,5.48-10.56,12.34s4.43,12.44,10.56,12.44c3.93,0,6.45-1.74,9.19-4.53l3.61,4C139.93,95.7,136.27,98.09,130.28,98.09Z"/><path class="cls-1" d="M160.36,98.09c-9.83,0-16.68-8.11-16.68-18s6.95-18.06,16.78-18.06,16.69,8.11,16.69,18S170.2,98.09,160.36,98.09Zm0-30.4c-6.35,0-10.79,5.53-10.79,12.34s4.53,12.44,10.89,12.44S171.25,87,171.25,80.13,166.72,67.69,160.36,67.69Z"/><path class="cls-1" d="M196.53,88.94h-.18l-10-16.32V97.49H180.8V62.67h6l9.74,16.47,9.74-16.47h6V97.49h-5.62v-25Z"/><path class="cls-1" d="M229.32,86.3H223V97.49h-5.62V62.67H230c7.45,0,12.16,4.58,12.16,11.69C242.12,82.22,236.36,86.3,229.32,86.3Zm.18-18.06H223V80.78h6.54c4.25,0,6.91-2.54,6.91-6.27C236.41,70.38,233.71,68.24,229.5,68.24Z"/><path class="cls-1" d="M272.16,97.49h-5.94L263,89.09H247.84l-3.29,8.4h-5.76l14.08-35.07h5.21ZM255.38,69.73,249.9,83.66h11Z"/><path class="cls-1" d="M296.86,62.67h5.53V97.49h-4.71L280,72.72V97.49H274.5V62.67h5.21l17.15,24.08Z"/><path class="cls-1" d="M322.55,97.49h-5.67V83.76L304.17,62.67h6.63l9,15.42,9.06-15.42h6.44L322.55,83.61Z"/><polygon class="cls-1" points="49.26 90.77 47.56 90.38 15.38 73.6 15.38 23.02 0 27.58 0 80.11 0 80.85 0 82.75 47.56 108.11 49.26 90.77 49.26 90.77"/><polygon class="cls-1" points="47.56 17.73 59.51 24.8 74.69 15.97 47.56 0 0 27.58 15.38 36.76 47.56 17.73"/><polygon class="cls-1" points="95.12 80.86 95.12 27.21 79.74 36.45 63.12 46.2 63.37 62.27 79.74 52.59 79.74 73.61 47.56 90.39 47.56 107.73 47.56 107.73 47.56 108.12 95.12 82.77 95.12 82.03 95.12 80.86"/><polygon class="cls-1" points="47.56 27.58 25.54 40.52 25.73 62.82 33.55 66.89 33.52 45.26 55.17 31.93 47.56 27.58"/></g></g></svg>